<?xml version="1.0" encoding="UTF-8" standalone="no"?>
<svg
   viewBox="0 0 512 512"
   version="1.1"
   id="svg4"
   sodipodi:docname="Keyword Patch Collection.svg"
   inkscape:version="1.1.2 (0a00cf5339, 2022-02-04, custom)"
   xmlns:inkscape="http://www.inkscape.org/namespaces/inkscape"
   xmlns:sodipodi="http://sodipodi.sourceforge.net/DTD/sodipodi-0.dtd"
   xmlns="http://www.w3.org/2000/svg"
   xmlns:svg="http://www.w3.org/2000/svg">
  <defs
     id="defs8" />
  <sodipodi:namedview
     id="namedview6"
     pagecolor="#505050"
     bordercolor="#eeeeee"
     borderopacity="1"
     inkscape:pageshadow="0"
     inkscape:pageopacity="0"
     inkscape:pagecheckerboard="0"
     showgrid="false"
     inkscape:zoom="0.60283615"
     inkscape:cx="-244.67677"
     inkscape:cy="296.92977"
     inkscape:window-width="2560"
     inkscape:window-height="1377"
     inkscape:window-x="-8"
     inkscape:window-y="-8"
     inkscape:window-maximized="1"
     inkscape:current-layer="layer6" />
  <g
     inkscape:groupmode="layer"
     id="layer1"
     inkscape:label="Magnifying Glass"
     style="display:inline">
    <g
       id="g3969">
      <path
         id="path30"
         d="m 333.7793,20.1875 c -39.97,0 -79.9593,15.21225 -110.4043,45.65625 -58.667,58.667 -60.79625,152.7207 -6.40625,213.9707 l -15.78125,15.74805 13.25,13.25 15.75,-15.78125 c 61.248,54.39 155.2988,52.26075 213.9668,-6.40625 60.887,-60.886 60.888,-159.8933 0,-220.779297 -30.442,-30.445 -70.402,-45.658203 -110.375,-45.658203 z m 0,18.5625 c 35.15,0 70.2852,13.4395 97.1582,40.3125 53.745,53.745 53.744,140.60075 0,194.34375 -51.526,51.526 -133.46,53.643 -187.5,6.375 l 0.21875,-0.2168 c -2.35,-2.05 -4.66825,-4.1712 -6.90625,-6.4082 -2.207,-2.206 -4.2875,-4.49455 -6.3125,-6.81055 l -0.21875,0.21875 c -47.27,-54.04 -45.151,-135.97595 6.375,-187.50195 C 263.46775,52.1895 298.6293,38.75 333.7793,38.75 Z M 176.90625,297.6875 42.09375,432.5 76.65625,467.0625 211.4707,332.25 Z M 40,456.8125 24,472.7793 37.220703,486 53.1875,470 Z"
         style="fill:#ffffff" />
      <path
         style="fill:#ffffff"
         d="M 40,456.8125 24,472.7793 37.220703,486 53.1875,470 Z"
         id="path3909" />
    </g>
  </g>
  <g
     inkscape:groupmode="layer"
     id="layer5"
     inkscape:label="Key 2"
     style="display:none">
    <path
       d="m 329.5478,100.93228 2.656,41.72986 94.47771,100.37725 -13.58354,14.42017 -25.57349,-27.22914 -4.32549,4.51133 19.19909,20.30102 -16.4672,17.56199 -13.28,-14.25905 7.28502,-7.65316 -15.93599,-16.83695 -7.20915,7.65316 -14.34239,-15.1452 16.39132,-17.48143 9.10628,9.50603 4.17371,-4.51134 -53.80297,-57.03619 -38.77759,-2.81958 q -13.8871,-0.88615 -14.79772,-15.62856 l -2.656,-42.132664 q -0.98651,-14.742393 12.97646,-13.695127 l 39.68822,2.739032 q 13.88709,0.886153 14.79772,15.628549 m -28.38127,10.63386 -9.18216,-0.64447 q -3.33897,-0.24168 -3.11132,3.22238 l 0.68298,9.82828 q 0.15177,3.54462 3.49074,3.7863 l 9.18218,0.56391 q 3.33896,0.32224 3.11131,-3.22238 l -0.60709,-9.74772 q -0.22766,-3.46406 -3.56664,-3.7863"
       fill="#ffffff"
       fill-rule="evenodd"
       stroke="none"
       id="path3699"
       style="fill:#ffffff;stroke-width:1.56375" />
  </g>
  <g
     inkscape:groupmode="layer"
     id="layer2"
     inkscape:label="Key 1 x3"
     style="display:none">
    <g
       id="g4000"
       style="display:inline">
      <path
         d="m 289.8748,251.96804 -2.29058,24.53968 -21.11912,-1.91975 0.91623,-9.81587 3.68096,0.3436 0.8576,-8.63524 -3.7273,-0.39949 1.82293,-19.52949 3.72729,0.39949 0.8385,-8.43073 -3.73683,-0.29724 0.85079,-9.66728 21.16547,1.97564 -1.13439,11.60044 5.52143,0.51539 7.36669,-78.36881 q -8.32301,-3.09753 -14.48786,-10.53175 -9.27998,-11.07704 -7.99972,-25.34547 1.33618,-14.31482 12.6736,-23.622079 10.90935,-9.140921 25.16825,-7.758406 14.31481,1.336174 23.70659,12.320492 9.11226,11.216133 7.77612,25.530903 -1.33616,14.3148 -12.34775,23.4462 -7.7137,6.39661 -16.96791,7.7503 l -12.2819,131.02685 -17.48451,-1.63204 3.12909,-32.97041 -5.62367,-0.52493 m 48.00486,-128.10495 q 0.7649,-8.74703 -4.84373,-15.51049 -5.51591,-6.65167 -14.2534,-7.51882 -8.69114,-0.81125 -15.3987,4.75102 -6.76347,5.60863 -7.63061,14.34611 -0.75535,8.64479 4.75102,15.3987 5.56226,6.70757 14.29976,7.57472 8.84928,0.77444 15.51049,-4.84373 6.76347,-5.60863 7.56517,-14.19751"
         fill="#ffffff"
         fill-rule="evenodd"
         stroke="none"
         id="path10-7"
         style="stroke-width:1.4523" />
      <g
         id="g3985">
        <path
           d="m 405.58705,196.10505 18.053,16.7789 -14.39925,15.56805 -7.2212,-6.71156 2.51685,-2.70795 -6.3212,-5.94519 -2.58941,2.7106 -14.36718,-13.35322 2.58941,-2.71059 -6.17076,-5.80535 -2.51418,2.7805 -7.14333,-6.56908 14.47182,-15.5707 8.50261,7.97262 3.77524,-4.06191 -57.62178,-53.62526 q -7.53013,4.70791 -17.18147,5.06094 -14.43807,0.60076 -24.96632,-9.11435 -10.53092,-9.7877 -10.99453,-24.448784 -0.5928,-14.220373 9.19755,-24.67871 9.78769,-10.530917 24.22045,-11.276825 14.44604,-0.383019 24.97695,9.404628 10.53091,9.787685 11.05382,24.08328 0.36629,10.014171 -4.20369,18.174321 l 96.3605,89.63 -11.95498,12.86276 -24.22375,-22.58427 -3.84517,4.13715 M 333.32501,79.943339 q -6.46633,-5.93988 -15.24687,-5.618706 -8.6354,0.315865 -14.65051,6.712291 -5.94254,6.393761 -5.62402,15.101734 0.32118,8.780542 6.7176,14.795642 6.39112,5.86997 15.10175,5.62402 8.70797,-0.31852 14.72308,-6.71495 6.00978,-6.54155 5.6187,-15.246879 -0.32118,-8.780541 -6.63973,-14.653152"
           fill="#ffffff"
           fill-rule="evenodd"
           stroke="none"
           id="path10"
           style="stroke-width:1.4523" />
        <path
           d="m 373.16855,240.66281 13.90615,20.3485 -17.47922,12.00747 -5.56246,-8.1394 3.05228,-2.08592 -4.85372,-7.19334 -3.12364,2.0725 -11.06698,-16.19402 3.12363,-2.07248 -4.73785,-7.02376 -3.06569,2.15728 -5.51795,-7.98326 17.55059,-11.99405 6.53405,9.65211 4.57842,-3.12888 -44.37037,-65.01699 q -8.38328,2.93051 -17.87467,1.14543 -14.21482,-2.59955 -22.34016,-14.3981 -8.11192,-11.86997 -5.32941,-26.27205 2.55929,-14.00072 14.41581,-22.041278 11.86995,-8.111928 26.11161,-5.655118 14.17457,2.813678 22.28649,14.683586 8.11192,11.86994 5.46788,25.92862 -1.85218,9.84821 -8.10993,16.799 l 74.21064,108.68146 -14.4983,9.90813 -18.644,-27.37226 -4.6632,3.18682 M 328.31626,111.42035 q -4.99646,-7.2202 -13.6315,-8.8442 -8.49229,-1.59716 -15.77042,3.31451 -7.20676,4.92509 -8.81734,13.48875 -1.62401,8.63503 3.28766,15.91315 4.93851,7.13541 13.48875,8.81735 8.56366,1.6106 15.8418,-3.30108 7.30496,-5.0544 8.84418,-13.63148 1.62402,-8.63504 -3.24313,-15.757"
           fill="#ffffff"
           fill-rule="evenodd"
           stroke="none"
           id="path10-7-3"
           style="stroke-width:1.4523" />
      </g>
    </g>
  </g>
  <g
     inkscape:groupmode="layer"
     id="layer6"
     inkscape:label="Key 1"
     style="display:inline">
    <path
       d="m 380.43927,237.73223 20.25208,20.25207 -17.38304,17.46742 -8.10083,-8.10083 3.03781,-3.03781 -7.08822,-7.17261 -3.1222,3.03781 -16.11727,-16.11728 3.12219,-3.03781 -6.91946,-7.00384 -3.03781,3.12219 -8.01645,-7.93206 17.46742,-17.46742 9.53535,9.61974 4.55672,-4.55672 -64.63788,-64.72226 q -8.94466,5.14741 -20.16769,5.14741 -16.79235,0.0844 -28.60606,-11.64495 -11.81371,-11.81371 -11.72932,-28.85921 -0.0844,-16.53919 11.72932,-28.268515 11.81371,-11.813711 28.60606,-12.066862 16.79235,0.168767 28.60606,11.982478 11.81371,11.813709 11.81371,28.437289 0,11.64494 -5.65371,20.92714 l 108.09546,108.17984 -14.4296,14.42961 -27.17154,-27.25592 -4.6411,4.6411 M 301.45617,99.764964 q -7.25699,-7.17261 -17.46741,-7.17261 -10.04166,0 -17.29865,7.17261 -7.17261,7.172606 -7.17261,17.298646 0,10.21042 7.17261,17.46741 7.17261,7.08823 17.29865,7.17261 10.12604,0 17.38303,-7.17261 7.25699,-7.34137 7.17261,-17.46741 0,-10.21042 -7.08823,-17.298646"
       fill="#ffffff"
       fill-rule="evenodd"
       stroke="none"
       id="path3971"
       style="stroke-width:1.68767" />
  </g>
</svg>
